<svg xmlns="http://www.w3.org/2000/svg" viewBox="0 0 512 512" width="512" height="512"><circle cx="256" cy="256" r="240" fill="#F4E9FF" stroke="none" stroke-width="0" opacity="1.0"/><circle cx="256" cy="256" r="228" fill="#9E60FF" opacity="0.18"/><circle cx="256" cy="256" r="208" fill="white"/><circle cx="256" cy="256" r="196" fill="#9E60FF" opacity="0.18"/><circle cx="256" cy="256" r="176" fill="white"/><circle cx="256" cy="256" r="160" fill="#ffffff" stroke="none" stroke-width="0" opacity="1.0"/><rect x="176" y="176" width="160" height="120" rx="24.0" ry="24.0" fill="#6D30E4"/><path d="M 224.0 296 L 208.0 320.0 L 248.0 290.0 Z" fill="#6D30E4"/><path d="M 228.5 241.5 L 250.5 263.5 L 289.0 214.0" fill="none" stroke="#fff" stroke-linecap="round" stroke-linejoin="round" stroke-width="26"/><polygon points="238.0,416.0 233.88550323395268,424.3368810393754 224.68520877186785,425.6737620787507 231.34260438593392,432.1631189606246 229.77100646790538,441.3262379212493 238.0,437.0 246.22899353209462,441.3262379212493 244.65739561406608,432.1631189606246 251.31479122813215,425.6737620787507 242.11449676604732,424.3368810393754" fill="#9E60FF"/><polygon points="274.0,416.0 269.8855032339527,424.3368810393754 260.68520877186785,425.6737620787507 267.3426043859339,432.1631189606246 265.77100646790535,441.3262379212493 274.0,437.0 282.2289935320946,441.3262379212493 280.65739561406605,432.1631189606246 287.31479122813215,425.6737620787507 278.1144967660473,424.3368810393754" fill="#9E60FF"/></svg>