<svg xmlns="http://www.w3.org/2000/svg" viewBox="0 0 512 512" width="512" height="512"><circle cx="256" cy="256" r="240" fill="#FFF6E5" stroke="none" stroke-width="0" opacity="1.0"/><circle cx="256" cy="256" r="228" fill="#FFB020" opacity="0.18"/><circle cx="256" cy="256" r="208" fill="white"/><circle cx="256" cy="256" r="196" fill="#FFB020" opacity="0.18"/><circle cx="256" cy="256" r="176" fill="white"/><circle cx="256" cy="256" r="164" fill="#FFB020" opacity="0.18"/><circle cx="256" cy="256" r="144" fill="white"/><circle cx="256" cy="256" r="160" fill="#ffffff" stroke="none" stroke-width="0" opacity="1.0"/><polygon points="256.0,136.0 223.67181112391398,211.5040653093779 141.87321804458156,218.9179606750063 203.69189160376655,272.9959346906221 185.46576972490323,353.0820393249937 256.0,311.0 326.5342302750968,353.08203932499373 308.3081083962334,272.9959346906221 370.12678195541844,218.91796067500633 288.328188876086,211.5040653093779" fill="#C97C00"/><polygon points="220.0,416.0 215.88550323395268,424.3368810393754 206.68520877186785,425.6737620787507 213.34260438593392,432.1631189606246 211.77100646790538,441.3262379212493 220.0,437.0 228.22899353209462,441.3262379212493 226.65739561406608,432.1631189606246 233.31479122813215,425.6737620787507 224.11449676604732,424.3368810393754" fill="#FFB020"/><polygon points="256.0,416.0 251.88550323395268,424.3368810393754 242.68520877186785,425.6737620787507 249.34260438593392,432.1631189606246 247.77100646790538,441.3262379212493 256.0,437.0 264.2289935320946,441.3262379212493 262.65739561406605,432.1631189606246 269.31479122813215,425.6737620787507 260.1144967660473,424.3368810393754" fill="#FFB020"/><polygon points="292.0,416.0 287.8855032339527,424.3368810393754 278.68520877186785,425.6737620787507 285.3426043859339,432.1631189606246 283.77100646790535,441.3262379212493 292.0,437.0 300.2289935320946,441.3262379212493 298.65739561406605,432.1631189606246 305.31479122813215,425.6737620787507 296.1144967660473,424.3368810393754" fill="#FFB020"/></svg>