<svg xmlns="http://www.w3.org/2000/svg" viewBox="0 0 512 512" width="512" height="512"><circle cx="256" cy="256" r="240" fill="#E9FBF1" stroke="none" stroke-width="0" opacity="1.0"/><circle cx="256" cy="256" r="228" fill="#1CC86E" opacity="0.18"/><circle cx="256" cy="256" r="208" fill="white"/><circle cx="256" cy="256" r="196" fill="#1CC86E" opacity="0.18"/><circle cx="256" cy="256" r="176" fill="white"/><circle cx="256" cy="256" r="160" fill="#ffffff" stroke="none" stroke-width="0" opacity="1.0"/><polygon points="256,348.0 176.0,228.0 224.0,228.0 224.0,172.0 288.0,172.0 288.0,228.0 336.0,228.0" fill="#11995B"/><polygon points="238.0,416.0 233.88550323395268,424.3368810393754 224.68520877186785,425.6737620787507 231.34260438593392,432.1631189606246 229.77100646790538,441.3262379212493 238.0,437.0 246.22899353209462,441.3262379212493 244.65739561406608,432.1631189606246 251.31479122813215,425.6737620787507 242.11449676604732,424.3368810393754" fill="#1CC86E"/><polygon points="274.0,416.0 269.8855032339527,424.3368810393754 260.68520877186785,425.6737620787507 267.3426043859339,432.1631189606246 265.77100646790535,441.3262379212493 274.0,437.0 282.2289935320946,441.3262379212493 280.65739561406605,432.1631189606246 287.31479122813215,425.6737620787507 278.1144967660473,424.3368810393754" fill="#1CC86E"/></svg>